<mxfile host="app.diagrams.net" modified="2024-02-28T09:18:47.633Z" agent="Mozilla/5.0 (X11; Ubuntu; Linux x86_64; rv:123.0) Gecko/20100101 Firefox/123.0" version="23.1.5" etag="jFr5btZWcspJJpMNfJRd" type="github">
  <diagram name="第 1 页" id="FXaCNTzzLb9rpZoLKYDX">
    <mxGraphModel>
      <root>
        <mxCell id="0" />
        <mxCell id="1" parent="0" />
      </root>
    </mxGraphModel>
  </diagram>
</mxfile>
